{
  "accessors": [
    {
      "bufferView": 0,
      "componentType": 5126,
      "count": 132,
      "max": [
        1.0000001192092896,
        4.0,
        8.174029630936275e-08
      ],
      "min": [
        -1.0,
        2.0,
        -1.0000001192092896
      ],
      "type": "VEC3"
    },
    {
      "bufferView": 1,
      "componentType": 5126,
      "count": 132,
      "type": "VEC3"
    },
    {
      "bufferView": 2,
      "componentType": 5126,
      "count": 132,
      "type": "VEC2"
    },
    {
      "bufferView": 3,
      "componentType": 5125,
      "count": 132,
      "type": "SCALAR"
    },
    {
      "bufferView": 4,
      "componentType": 5126,
      "count": 132,
      "max": [
        1.0000001192092896,
        2.0,
        8.174029630936275e-08
      ],
      "min": [
        5.68248026411311e-09,
        0.0,
        -1.0
      ],
      "type": "VEC3"
    },
    {
      "bufferView": 5,
      "componentType": 5126,
      "count": 132,
      "type": "VEC3"
    },
    {
      "bufferView": 6,
      "componentType": 5126,
      "count": 132,
      "type": "VEC2"
    },
    {
      "bufferView": 7,
      "componentType": 5125,
      "count": 132,
      "type": "SCALAR"
    },
    {
      "bufferView": 8,
      "componentType": 5126,
      "count": 132,
      "max": [
        8.174029630936275e-08,
        2.0,
        -5.68248026411311e-09
      ],
      "min": [
        -1.0,
        0.0,
        -1.0000001192092896
      ],
      "type": "VEC3"
    },
    {
      "bufferView": 9,
      "componentType": 5126,
      "count": 132,
      "type": "VEC3"
    },
    {
      "bufferView": 10,
      "componentType": 5126,
      "count": 132,
      "type": "VEC2"
    },
    {
      "bufferView": 11,
      "componentType": 5125,
      "count": 132,
      "type": "SCALAR"
    },
    {
      "bufferView": 12,
      "componentType": 5126,
      "count": 132,
      "max": [
        -0.9999999403953552,
        4.0,
        -9.310526394301633e-08
      ],
      "min": [
        -2.0,
        2.0,
        -1.0000001192092896
      ],
      "type": "VEC3"
    },
    {
      "bufferView": 13,
      "componentType": 5126,
      "count": 132,
      "type": "VEC3"
    },
    {
      "bufferView": 14,
      "componentType": 5126,
      "count": 132,
      "type": "VEC2"
    },
    {
      "bufferView": 15,
      "componentType": 5125,
      "count": 132,
      "type": "SCALAR"
    },
    {
      "bufferView": 16,
      "componentType": 5126,
      "count": 132,
      "max": [
        2.0,
        4.0,
        1.691630728828386e-07
      ],
      "min": [
        1.0,
        2.0,
        -0.9999998807907104
      ],
      "type": "VEC3"
    },
    {
      "bufferView": 17,
      "componentType": 5126,
      "count": 132,
      "type": "VEC3"
    },
    {
      "bufferView": 18,
      "componentType": 5126,
      "count": 132,
      "type": "VEC2"
    },
    {
      "bufferView": 19,
      "componentType": 5125,
      "count": 132,
      "type": "SCALAR"
    },
    {
      "bufferView": 20,
      "componentType": 5126,
      "count": 2538,
      "max": [
        0.5989250540733337,
        5.101210117340088,
        0.09892451018095016
      ],
      "min": [
        -0.5989249348640442,
        3.898789882659912,
        -1.0989199876785278
      ],
      "type": "VEC3"
    },
    {
      "bufferView": 21,
      "componentType": 5126,
      "count": 2538,
      "type": "VEC3"
    },
    {
      "bufferView": 22,
      "componentType": 5126,
      "count": 2538,
      "type": "VEC2"
    },
    {
      "bufferView": 23,
      "componentType": 5125,
      "count": 2538,
      "type": "SCALAR"
    }
  ],
  "asset": {
    "generator": "Prisma3D Pro",
    "version": "2.0"
  },
  "bufferViews": [
    {
      "buffer": 0,
      "byteLength": 1584,
      "target": 34962
    },
    {
      "buffer": 1,
      "byteLength": 1584,
      "target": 34962
    },
    {
      "buffer": 2,
      "byteLength": 1056,
      "target": 34962
    },
    {
      "buffer": 3,
      "byteLength": 528,
      "target": 34963
    },
    {
      "buffer": 4,
      "byteLength": 1584,
      "target": 34962
    },
    {
      "buffer": 5,
      "byteLength": 1584,
      "target": 34962
    },
    {
      "buffer": 6,
      "byteLength": 1056,
      "target": 34962
    },
    {
      "buffer": 7,
      "byteLength": 528,
      "target": 34963
    },
    {
      "buffer": 8,
      "byteLength": 1584,
      "target": 34962
    },
    {
      "buffer": 9,
      "byteLength": 1584,
      "target": 34962
    },
    {
      "buffer": 10,
      "byteLength": 1056,
      "target": 34962
    },
    {
      "buffer": 11,
      "byteLength": 528,
      "target": 34963
    },
    {
      "buffer": 12,
      "byteLength": 1584,
      "target": 34962
    },
    {
      "buffer": 13,
      "byteLength": 1584,
      "target": 34962
    },
    {
      "buffer": 14,
      "byteLength": 1056,
      "target": 34962
    },
    {
      "buffer": 15,
      "byteLength": 528,
      "target": 34963
    },
    {
      "buffer": 16,
      "byteLength": 1584,
      "target": 34962
    },
    {
      "buffer": 17,
      "byteLength": 1584,
      "target": 34962
    },
    {
      "buffer": 18,
      "byteLength": 1056,
      "target": 34962
    },
    {
      "buffer": 19,
      "byteLength": 528,
      "target": 34963
    },
    {
      "buffer": 20,
      "byteLength": 30456,
      "target": 34962
    },
    {
      "buffer": 21,
      "byteLength": 30456,
      "target": 34962
    },
    {
      "buffer": 22,
      "byteLength": 20304,
      "target": 34962
    },
    {
      "buffer": 23,
      "byteLength": 10152,
      "target": 34963
    }
  ],
  "buffers": [
    {
      "byteLength": 1584,
      "uri": "data:application/octet-stream;base64,"
    },
    {
      "byteLength": 1584,
      "uri": "data:application/octet-stream;base64,"
    },
    {
      "byteLength": 1056,
      "uri": "data:application/octet-stream;base64,"
    },
    {
      "byteLength": 528,
      "uri": "data:application/octet-stream;base64,"
    },
    {
      "byteLength": 1584,
      "uri": "data:application/octet-stream;base64,"
    },
    {
      "byteLength": 1584,
      "uri": "data:application/octet-stream;base64,"
    },
    {
      "byteLength": 1056,
      "uri": "data:application/octet-stream;base64,"
    },
    {
      "byteLength": 528,
      "uri": "data:application/octet-stream;base64,"
    },
    {
      "byteLength": 1584,
      "uri": "data:application/octet-stream;base64,"
    },
    {
      "byteLength": 1584,
      "uri": "data:application/octet-stream;base64,"
    },
    {
      "byteLength": 1056,
      "uri": "data:application/octet-stream;base64,"
    },
    {
      "byteLength": 528,
      "uri": "data:application/octet-stream;base64,"
    },
    {
      "byteLength": 1584,
      "uri": "data:application/octet-stream;base64,"
    },
    {
      "byteLength": 1584,
      "uri": "data:application/octet-stream;base64,"
    },
    {
      "byteLength": 1056,
      "uri": "data:application/octet-stream;base64,"
    },
    {
      "byteLength": 528,
      "uri": "data:application/octet-stream;base64,"
    },
    {
      "byteLength": 1584,
      "uri": "data:application/octet-stream;base64,"
    },
    {
      "byteLength": 1584,
      "uri": "data:application/octet-stream;base64,"
    },
    {
      "byteLength": 1056,
      "uri": "data:application/octet-stream;base64,"
    },
    {
      "byteLength": 528,
      "uri": "data:application/octet-stream;base64,"
    },
    {
      "byteLength": 30456,
      "uri": "data:application/octet-stream;base64,"
    },
    {
      "byteLength": 30456,
      "uri": "data:application/octet-stream;base64,"
    },
    {
      "byteLength": 20304,
      "uri": "data:application/octet-stream;base64,"
    },
    {
      "byteLength": 10152,
      "uri": "data:application/octet-stream;base64,"
    }
  ],
  "images": [
    {
      "name": "5726615651_Tex1.png",
      "uri": "data:image/png;base64,"
    }
  ],
  "materials": [
    {
      "doubleSided": true,
      "pbrMetallicRoughness": {
        "baseColorFactor": [
          0.2078431397676468,
          0.2078431397676468,
          0.2078431397676468,
          1.0
        ],
        "metallicFactor": 0.0,
        "roughnessFactor": 0.0
      }
    },
    {
      "doubleSided": true,
      "pbrMetallicRoughness": {
        "metallicFactor": 0.0,
        "roughnessFactor": 0.0
      }
    },
    {
      "doubleSided": true,
      "pbrMetallicRoughness": {
        "metallicFactor": 0.0,
        "roughnessFactor": 0.0
      }
    },
    {
      "doubleSided": true,
      "pbrMetallicRoughness": {
        "metallicFactor": 0.0,
        "roughnessFactor": 0.0
      }
    },
    {
      "doubleSided": true,
      "pbrMetallicRoughness": {
        "metallicFactor": 0.0,
        "roughnessFactor": 0.0
      }
    },
    {
      "doubleSided": true,
      "pbrMetallicRoughness": {
        "baseColorTexture": {
          "index": 0
        },
        "metallicFactor": 0.0,
        "roughnessFactor": 0.0
      }
    }
  ],
  "meshes": [
    {
      "primitives": [
        {
          "attributes": {
            "NORMAL": 1,
            "POSITION": 0,
            "TEXCOORD_0": 2
          },
          "indices": 3,
          "material": 0,
          "mode": 4
        }
      ]
    },
    {
      "primitives": [
        {
          "attributes": {
            "NORMAL": 5,
            "POSITION": 4,
            "TEXCOORD_0": 6
          },
          "indices": 7,
          "material": 1,
          "mode": 4
        }
      ]
    },
    {
      "primitives": [
        {
          "attributes": {
            "NORMAL": 9,
            "POSITION": 8,
            "TEXCOORD_0": 10
          },
          "indices": 11,
          "material": 2,
          "mode": 4
        }
      ]
    },
    {
      "primitives": [
        {
          "attributes": {
            "NORMAL": 13,
            "POSITION": 12,
            "TEXCOORD_0": 14
          },
          "indices": 15,
          "material": 3,
          "mode": 4
        }
      ]
    },
    {
      "primitives": [
        {
          "attributes": {
            "NORMAL": 17,
            "POSITION": 16,
            "TEXCOORD_0": 18
          },
          "indices": 19,
          "material": 4,
          "mode": 4
        }
      ]
    },
    {
      "primitives": [
        {
          "attributes": {
            "NORMAL": 21,
            "POSITION": 20,
            "TEXCOORD_0": 22
          },
          "indices": 23,
          "material": 5,
          "mode": 4
        }
      ]
    }
  ],
  "nodes": [
    {
      "children": [
        1
      ],
      "name": "Dummy",
      "rotation": [
        0.0,
        -0.0,
        -0.0,
        1.0
      ],
      "scale": [
        1.0,
        1.0,
        1.0
      ],
      "translation": [
        -0.0,
        -8.625119107819046e-07,
        0.0
      ]
    },
    {
      "children": [
        11,
        9,
        7,
        5,
        3,
        2
      ],
      "name": "Кость",
      "rotation": [
        0.0,
        -0.0,
        -0.0,
        1.0
      ],
      "scale": [
        1.0,
        1.0,
        1.0
      ],
      "translation": [
        -0.029124736785888672,
        1.9325042963027954,
        -0.2547452449798584
      ]
    },
    {
      "mesh": 0,
      "name": "Mrgrey1Mtl5",
      "rotation": [
        0.0,
        -0.0,
        -0.0,
        1.0
      ],
      "scale": [
        1.0,
        1.0,
        1.0
      ],
      "translation": [
        0.014167308807373047,
        -1.9325042963027954,
        0.2547452449798584
      ]
    },
    {
      "children": [
        4
      ],
      "name": "Кость",
      "rotation": [
        0.0,
        -0.0,
        -0.0,
        1.0
      ],
      "scale": [
        1.0,
        1.0,
        1.0
      ],
      "translation": [
        0.6019692420959473,
        -0.09210658073425293,
        -0.26536238193511963
      ]
    },
    {
      "mesh": 1,
      "name": "Mrgrey1Mtl2",
      "rotation": [
        0.0,
        -0.0,
        -0.0,
        1.0
      ],
      "scale": [
        1.0,
        1.0,
        1.0
      ],
      "translation": [
        -0.619105339050293,
        -1.8403977155685425,
        0.520107626914978
      ]
    },
    {
      "children": [
        6
      ],
      "name": "Кость",
      "rotation": [
        0.0,
        -0.0,
        -0.0,
        1.0
      ],
      "scale": [
        1.0,
        1.0,
        1.0
      ],
      "translation": [
        -0.6296391487121582,
        -0.10679256916046143,
        -0.24476462602615356
      ]
    },
    {
      "mesh": 2,
      "name": "Mrgrey1Mtl1",
      "rotation": [
        0.0,
        -0.0,
        -0.0,
        1.0
      ],
      "scale": [
        1.0,
        1.0,
        1.0
      ],
      "translation": [
        0.6218709945678711,
        -1.825711727142334,
        0.49950987100601196
      ]
    },
    {
      "children": [
        8
      ],
      "name": "Кость",
      "rotation": [
        0.0,
        -0.0,
        -0.0,
        1.0
      ],
      "scale": [
        1.0,
        1.0,
        1.0
      ],
      "translation": [
        -1.449002742767334,
        2.0399975776672363,
        -0.24477386474609375
      ]
    },
    {
      "mesh": 3,
      "name": "Mrgrey1Mtl3",
      "rotation": [
        0.0,
        -0.0,
        -0.0,
        1.0
      ],
      "scale": [
        1.0,
        1.0,
        1.0
      ],
      "translation": [
        1.463170051574707,
        -3.972501754760742,
        0.49951910972595215
      ]
    },
    {
      "children": [
        10
      ],
      "name": "Кость",
      "rotation": [
        0.0,
        -0.0,
        -0.0,
        1.0
      ],
      "scale": [
        1.0,
        1.0,
        1.0
      ],
      "translation": [
        1.4872827529907227,
        2.026093006134033,
        -0.24476343393325806
      ]
    },
    {
      "mesh": 4,
      "name": "Mrgrey1Mtl4",
      "rotation": [
        0.0,
        -0.0,
        -0.0,
        1.0
      ],
      "scale": [
        1.0,
        1.0,
        1.0
      ],
      "translation": [
        -1.5491852760314941,
        -3.958597183227539,
        0.49950867891311646
      ]
    },
    {
      "children": [
        12
      ],
      "name": "Кость",
      "rotation": [
        0.0,
        -0.0,
        -0.0,
        1.0
      ],
      "scale": [
        1.0,
        1.0,
        1.0
      ],
      "translation": [
        0.015037059783935547,
        2.6561665534973145,
        -0.23941928148269653
      ]
    },
    {
      "mesh": 5,
      "name": "Mrgrey1Mtl",
      "rotation": [
        0.0,
        -0.0,
        -0.0,
        1.0
      ],
      "scale": [
        1.0,
        1.0,
        1.0
      ],
      "translation": [
        -0.08069038391113281,
        -4.58867073059082,
        0.49416452646255493
      ]
    }
  ],
  "scenes": [
    {
      "nodes": [
        0
      ]
    }
  ],
  "textures": [
    {
      "source": 0
    }
  ]
}
